{
    "accessors": [
        {
            "bufferView": 5,
            "byteOffset": 0,
            "componentType": 5126,
            "count": 5381,
            "max": [
                0.9989950656890869,
                0.9997944831848145,
                0.999581515789032
            ],
            "min": [
                -0.9999933242797852,
                -0.9983803033828735,
                -0.9999605417251587
            ],
            "name": "accessor_buffer_legs_NORMAL_0",
            "type": "VEC3"
        },
        {
            "bufferView": 10,
            "byteOffset": 0,
            "componentType": 5126,
            "count": 2936,
            "max": [
                0.7831000089645386,
                0.9499999992549419
            ],
            "min": [
                0.40959998965263367,
                0.09719997644424438
            ],
            "name": "accessor_buffer_wings_TEXCOORD_0_0",
            "type": "VEC2"
        },
        {
            "bufferView": 2,
            "byteOffset": 0,
            "componentType": 5126,
            "count": 7578,
            "max": [
                0.983299970626831,
                0.9892999995499849
            ],
            "min": [
                0.06279999762773514,
                0.033100008964538574
            ],
            "name": "accessor_buffer_body_TEXCOORD_0_0",
            "type": "VEC2"
        },
        {
            "bufferView": 11,
            "byteOffset": 0,
            "componentType": 5123,
            "count": 15618,
            "max": [
                2935
            ],
            "min": [
                0
            ],
            "name": "accessor_buffer_wings_0",
            "type": "SCALAR"
        },
        {
            "bufferView": 0,
            "byteOffset": 0,
            "componentType": 5126,
            "count": 7578,
            "max": [
                132.30299377441406,
                100.57553100585938,
                128.68270874023438
            ],
            "min": [
                -109.19975280761719,
                -103.07379150390625,
                -101.73542785644531
            ],
            "name": "accessor_buffer_body_POSITION_0",
            "type": "VEC3"
        },
        {
            "bufferView": 3,
            "byteOffset": 0,
            "componentType": 5123,
            "count": 42348,
            "max": [
                7577
            ],
            "min": [
                0
            ],
            "name": "accessor_buffer_body_0",
            "type": "SCALAR"
        },
        {
            "bufferView": 9,
            "byteOffset": 0,
            "componentType": 5126,
            "count": 2936,
            "max": [
                0.9996007680892944,
                0.9968036413192749,
                0.9998477697372437
            ],
            "min": [
                -0.9989118576049805,
                -0.9999743103981018,
                -0.9988760352134705
            ],
            "name": "accessor_buffer_wings_NORMAL_0",
            "type": "VEC3"
        },
        {
            "bufferView": 4,
            "byteOffset": 0,
            "componentType": 5126,
            "count": 5381,
            "max": [
                41.20692443847656,
                45.71177673339844,
                134.80282592773438
            ],
            "min": [
                -199.86875915527344,
                -94.78253173828125,
                -144.49424743652344
            ],
            "name": "accessor_buffer_legs_POSITION_0",
            "type": "VEC3"
        },
        {
            "bufferView": 7,
            "byteOffset": 0,
            "componentType": 5123,
            "count": 31314,
            "max": [
                5380
            ],
            "min": [
                0
            ],
            "name": "accessor_buffer_legs_0",
            "type": "SCALAR"
        },
        {
            "bufferView": 8,
            "byteOffset": 0,
            "componentType": 5126,
            "count": 2936,
            "max": [
                127.66897583007812,
                114.12054443359375,
                141.74151611328125
            ],
            "min": [
                -85.42823028564453,
                -44.74845504760742,
                -138.91880798339844
            ],
            "name": "accessor_buffer_wings_POSITION_0",
            "type": "VEC3"
        },
        {
            "bufferView": 6,
            "byteOffset": 0,
            "componentType": 5126,
            "count": 5381,
            "max": [
                0.38499999046325684,
                0.9922000002115965
            ],
            "min": [
                0.007600000128149986,
                0.015200018882751465
            ],
            "name": "accessor_buffer_legs_TEXCOORD_0_0",
            "type": "VEC2"
        },
        {
            "bufferView": 1,
            "byteOffset": 0,
            "componentType": 5126,
            "count": 7578,
            "max": [
                0.9998984336853027,
                0.9999880790710449,
                0.999182403087616
            ],
            "min": [
                -0.9998374581336975,
                -0.9993296265602112,
                -0.9998655915260315
            ],
            "name": "accessor_buffer_body_NORMAL_0",
            "type": "VEC3"
        }
    ],
    "asset": {
        "copyright": "",
        "generator": "blendergltf v1.2.0",
        "version": "2.0"
    },
    "bufferViews": [
        {
            "buffer": 0,
            "byteLength": 90936,
            "byteOffset": 0,
            "byteStride": 12,
            "name": "bufferView_buffer_body_POSITION_0",
            "target": 34962
        },
        {
            "buffer": 0,
            "byteLength": 90936,
            "byteOffset": 90936,
            "byteStride": 12,
            "name": "bufferView_buffer_body_NORMAL_0",
            "target": 34962
        },
        {
            "buffer": 0,
            "byteLength": 60624,
            "byteOffset": 181872,
            "byteStride": 8,
            "name": "bufferView_buffer_body_TEXCOORD_0_0",
            "target": 34962
        },
        {
            "buffer": 0,
            "byteLength": 84700,
            "byteOffset": 242496,
            "name": "bufferView_buffer_body_0",
            "target": 34963
        },
        {
            "buffer": 0,
            "byteLength": 64572,
            "byteOffset": 327196,
            "byteStride": 12,
            "name": "bufferView_buffer_legs_POSITION_0",
            "target": 34962
        },
        {
            "buffer": 0,
            "byteLength": 64572,
            "byteOffset": 391768,
            "byteStride": 12,
            "name": "bufferView_buffer_legs_NORMAL_0",
            "target": 34962
        },
        {
            "buffer": 0,
            "byteLength": 43048,
            "byteOffset": 456340,
            "byteStride": 8,
            "name": "bufferView_buffer_legs_TEXCOORD_0_0",
            "target": 34962
        },
        {
            "buffer": 0,
            "byteLength": 62632,
            "byteOffset": 499388,
            "name": "bufferView_buffer_legs_0",
            "target": 34963
        },
        {
            "buffer": 0,
            "byteLength": 35232,
            "byteOffset": 562020,
            "byteStride": 12,
            "name": "bufferView_buffer_wings_POSITION_0",
            "target": 34962
        },
        {
            "buffer": 0,
            "byteLength": 35232,
            "byteOffset": 597252,
            "byteStride": 12,
            "name": "bufferView_buffer_wings_NORMAL_0",
            "target": 34962
        },
        {
            "buffer": 0,
            "byteLength": 23488,
            "byteOffset": 632484,
            "byteStride": 8,
            "name": "bufferView_buffer_wings_TEXCOORD_0_0",
            "target": 34962
        },
        {
            "buffer": 0,
            "byteLength": 31240,
            "byteOffset": 655972,
            "name": "bufferView_buffer_wings_0",
            "target": 34963
        }
    ],
    "buffers": [
        {
            "byteLength": 687212,
            "name": "buffer_chicken",
            "uri": "data:application/octet-stream;base64,"
        }
    ],
    "cameras": [
        {
            "name": "Camera",
            "perspective": {
                "aspectRatio": 1.703595982340029,
                "yfov": 0.5033799409866333,
                "zfar": 100.0,
                "znear": 0.10000000149011612
            },
            "type": "perspective"
        }
    ],
    "materials": [
        {
            "alphaMode": "OPAQUE",
            "doubleSided": false,
            "emissiveFactor": [
                0.0,
                0.0,
                0.0
            ],
            "name": "body",
            "pbrMetallicRoughness": {
                "baseColorFactor": [
                    0.64000004529953,
                    0.64000004529953,
                    0.64000004529953,
                    1.0
                ],
                "metallicFactor": 0.0,
                "roughnessFactor": 1.0
            }
        },
        {
            "alphaMode": "OPAQUE",
            "doubleSided": false,
            "emissiveFactor": [
                0.0,
                0.0,
                0.0
            ],
            "name": "legs",
            "pbrMetallicRoughness": {
                "baseColorFactor": [
                    0.64000004529953,
                    0.64000004529953,
                    0.64000004529953,
                    1.0
                ],
                "metallicFactor": 0.0,
                "roughnessFactor": 1.0
            }
        },
        {
            "alphaMode": "OPAQUE",
            "doubleSided": false,
            "emissiveFactor": [
                0.0,
                0.0,
                0.0
            ],
            "name": "wings",
            "pbrMetallicRoughness": {
                "baseColorFactor": [
                    0.64000004529953,
                    0.64000004529953,
                    0.64000004529953,
                    1.0
                ],
                "metallicFactor": 0.0,
                "roughnessFactor": 1.0
            }
        }
    ],
    "meshes": [
        {
            "name": "body",
            "primitives": [
                {
                    "attributes": {
                        "NORMAL": 11,
                        "POSITION": 4,
                        "TEXCOORD_0": 2
                    },
                    "indices": 5,
                    "material": 0,
                    "mode": 4
                }
            ]
        },
        {
            "name": "legs",
            "primitives": [
                {
                    "attributes": {
                        "NORMAL": 0,
                        "POSITION": 7,
                        "TEXCOORD_0": 10
                    },
                    "indices": 8,
                    "material": 1,
                    "mode": 4
                }
            ]
        },
        {
            "name": "wings",
            "primitives": [
                {
                    "attributes": {
                        "NORMAL": 6,
                        "POSITION": 9,
                        "TEXCOORD_0": 1
                    },
                    "indices": 3,
                    "material": 2,
                    "mode": 4
                }
            ]
        }
    ],
    "nodes": [
        {
            "mesh": 0,
            "name": "body",
            "rotation": [
                0.0,
                0.7660444974899292,
                0.0,
                0.6427875757217407
            ],
            "scale": [
                0.023050418123602867,
                0.023050406947731972,
                0.02305040881037712
            ],
            "translation": [
                -0.08260037750005722,
                -0.7743785381317139,
                9.874892725747486e-08
            ]
        },
        {
            "camera": 0,
            "name": "Camera",
            "rotation": [
                -0.20740030705928802,
                0.4089401066303253,
                0.09573213011026382,
                0.8835092186927795
            ],
            "scale": [
                1.0,
                1.0,
                1.0
            ],
            "translation": [
                12.752508163452148,
                5.324258804321289,
                -6.507640361785889
            ]
        },
        {
            "name": "Lamp",
            "rotation": [
                -0.34203386306762695,
                -0.5232755541801453,
                -0.2841663062572479,
                0.7269423007965088
            ],
            "scale": [
                1.0,
                1.0,
                0.9999999403953552
            ],
            "translation": [
                2.969769239425659,
                4.940369606018066,
                -23.233997344970703
            ]
        },
        {
            "mesh": 1,
            "name": "legs",
            "rotation": [
                0.0,
                0.7660444974899292,
                0.0,
                0.6427875757217407
            ],
            "scale": [
                0.023050418123602867,
                0.023050406947731972,
                0.02305040881037712
            ],
            "translation": [
                -0.07440613210201263,
                -0.8385922312736511,
                -0.07009664177894592
            ]
        },
        {
            "mesh": 2,
            "name": "wings",
            "rotation": [
                0.0,
                0.7660444974899292,
                0.0,
                0.6427875757217407
            ],
            "scale": [
                0.023050418123602867,
                0.023050406947731972,
                0.02305040881037712
            ],
            "translation": [
                -0.08260037750005722,
                -0.7743785381317139,
                9.874892725747486e-08
            ]
        }
    ],
    "scene": 0,
    "scenes": [
        {
            "extras": {
                "active_camera": 0,
                "background_color": [
                    0.05087608844041824,
                    0.05087608844041824,
                    0.05087608844041824
                ],
                "frames_per_second": 24
            },
            "name": "Scene",
            "nodes": [
                3,
                4,
                0,
                2,
                1
            ]
        }
    ]
}
