{
    "accessors": [
        {
            "bufferView": 8,
            "byteOffset": 0,
            "componentType": 5126,
            "count": 1759,
            "max": [
                83.72344970703125,
                114.12054443359375,
                141.74151611328125
            ],
            "min": [
                -85.42823028564453,
                -7.090673923492432,
                -99.54895782470703
            ],
            "name": "accessor_buffer_leftWing_POSITION_0",
            "type": "VEC3"
        },
        {
            "bufferView": 13,
            "byteOffset": 0,
            "componentType": 5126,
            "count": 2677,
            "max": [
                0.9989950656890869,
                0.9997944831848145,
                0.999581515789032
            ],
            "min": [
                -0.9999933242797852,
                -0.992583155632019,
                -0.9999605417251587
            ],
            "name": "accessor_buffer_rightLeg_NORMAL_0",
            "type": "VEC3"
        },
        {
            "bufferView": 2,
            "byteOffset": 0,
            "componentType": 5126,
            "count": 7600,
            "max": [
                0.983299970626831,
                0.9892999995499849
            ],
            "min": [
                0.06279999762773514,
                0.033100008964538574
            ],
            "name": "accessor_buffer_body_TEXCOORD_0_0",
            "type": "VEC2"
        },
        {
            "bufferView": 0,
            "byteOffset": 0,
            "componentType": 5126,
            "count": 7600,
            "max": [
                132.30299377441406,
                100.57553100585938,
                129.08106994628906
            ],
            "min": [
                -109.19975280761719,
                -103.07379150390625,
                -101.73542785644531
            ],
            "name": "accessor_buffer_body_POSITION_0",
            "type": "VEC3"
        },
        {
            "bufferView": 3,
            "byteOffset": 0,
            "componentType": 5123,
            "count": 42000,
            "max": [
                7599
            ],
            "min": [
                0
            ],
            "name": "accessor_buffer_body_0",
            "type": "SCALAR"
        },
        {
            "bufferView": 1,
            "byteOffset": 0,
            "componentType": 5126,
            "count": 7600,
            "max": [
                0.9998984336853027,
                0.9999880790710449,
                0.999182403087616
            ],
            "min": [
                -0.9998374581336975,
                -0.9993296265602112,
                -0.9998655915260315
            ],
            "name": "accessor_buffer_body_NORMAL_0",
            "type": "VEC3"
        },
        {
            "bufferView": 10,
            "byteOffset": 0,
            "componentType": 5126,
            "count": 1759,
            "max": [
                0.7831000089645386,
                0.8541000038385391
            ],
            "min": [
                0.40959998965263367,
                0.09719997644424438
            ],
            "name": "accessor_buffer_leftWing_TEXCOORD_0_0",
            "type": "VEC2"
        },
        {
            "bufferView": 11,
            "byteOffset": 0,
            "componentType": 5123,
            "count": 8070,
            "max": [
                1758
            ],
            "min": [
                0
            ],
            "name": "accessor_buffer_leftWing_0",
            "type": "SCALAR"
        },
        {
            "bufferView": 4,
            "byteOffset": 0,
            "componentType": 5126,
            "count": 2704,
            "max": [
                -1.8714027404785156,
                45.71177673339844,
                134.80282592773438
            ],
            "min": [
                -199.86875915527344,
                -68.04800415039062,
                -1.4826397895812988
            ],
            "name": "accessor_buffer_leftLeg_POSITION_0",
            "type": "VEC3"
        },
        {
            "bufferView": 16,
            "byteOffset": 0,
            "componentType": 5126,
            "count": 1449,
            "max": [
                127.66897583007812,
                68.3495864868164,
                -63.885406494140625
            ],
            "min": [
                -39.86684799194336,
                -44.74845504760742,
                -138.91880798339844
            ],
            "name": "accessor_buffer_rightWing_POSITION_0",
            "type": "VEC3"
        },
        {
            "bufferView": 19,
            "byteOffset": 0,
            "componentType": 5123,
            "count": 7896,
            "max": [
                1448
            ],
            "min": [
                0
            ],
            "name": "accessor_buffer_rightWing_0",
            "type": "SCALAR"
        },
        {
            "bufferView": 7,
            "byteOffset": 0,
            "componentType": 5123,
            "count": 15720,
            "max": [
                2703
            ],
            "min": [
                0
            ],
            "name": "accessor_buffer_leftLeg_0",
            "type": "SCALAR"
        },
        {
            "bufferView": 14,
            "byteOffset": 0,
            "componentType": 5126,
            "count": 2677,
            "max": [
                0.3666999936103821,
                0.9922000002115965
            ],
            "min": [
                0.007600000128149986,
                0.6222000122070312
            ],
            "name": "accessor_buffer_rightLeg_TEXCOORD_0_0",
            "type": "VEC2"
        },
        {
            "bufferView": 9,
            "byteOffset": 0,
            "componentType": 5126,
            "count": 1759,
            "max": [
                0.9962189197540283,
                0.9968036413192749,
                0.9998477697372437
            ],
            "min": [
                -0.9989118576049805,
                -0.9999743103981018,
                -0.9992280006408691
            ],
            "name": "accessor_buffer_leftWing_NORMAL_0",
            "type": "VEC3"
        },
        {
            "bufferView": 6,
            "byteOffset": 0,
            "componentType": 5126,
            "count": 2704,
            "max": [
                0.38499999046325684,
                0.3920000195503235
            ],
            "min": [
                0.01889999955892563,
                0.015200018882751465
            ],
            "name": "accessor_buffer_leftLeg_TEXCOORD_0_0",
            "type": "VEC2"
        },
        {
            "bufferView": 5,
            "byteOffset": 0,
            "componentType": 5126,
            "count": 2704,
            "max": [
                0.8954293727874756,
                0.9956169128417969,
                0.9992663860321045
            ],
            "min": [
                -0.9996731281280518,
                -0.9983803033828735,
                -0.999290406703949
            ],
            "name": "accessor_buffer_leftLeg_NORMAL_0",
            "type": "VEC3"
        },
        {
            "bufferView": 15,
            "byteOffset": 0,
            "componentType": 5123,
            "count": 15594,
            "max": [
                2676
            ],
            "min": [
                0
            ],
            "name": "accessor_buffer_rightLeg_0",
            "type": "SCALAR"
        },
        {
            "bufferView": 18,
            "byteOffset": 0,
            "componentType": 5126,
            "count": 1449,
            "max": [
                0.7430999875068665,
                0.9499999992549419
            ],
            "min": [
                0.41449999809265137,
                0.6538000106811523
            ],
            "name": "accessor_buffer_rightWing_TEXCOORD_0_0",
            "type": "VEC2"
        },
        {
            "bufferView": 17,
            "byteOffset": 0,
            "componentType": 5126,
            "count": 1449,
            "max": [
                0.9996007680892944,
                0.9954925775527954,
                0.99981290102005
            ],
            "min": [
                -0.9950363039970398,
                -0.9925161004066467,
                -0.9988760352134705
            ],
            "name": "accessor_buffer_rightWing_NORMAL_0",
            "type": "VEC3"
        },
        {
            "bufferView": 12,
            "byteOffset": 0,
            "componentType": 5126,
            "count": 2677,
            "max": [
                41.20692443847656,
                2.9594130516052246,
                -47.536033630371094
            ],
            "min": [
                -171.45814514160156,
                -94.78253173828125,
                -144.49424743652344
            ],
            "name": "accessor_buffer_rightLeg_POSITION_0",
            "type": "VEC3"
        }
    ],
    "asset": {
        "copyright": "",
        "generator": "blendergltf v1.2.0",
        "version": "2.0"
    },
    "bufferViews": [
        {
            "buffer": 0,
            "byteLength": 91200,
            "byteOffset": 0,
            "byteStride": 12,
            "name": "bufferView_buffer_body_POSITION_0",
            "target": 34962
        },
        {
            "buffer": 0,
            "byteLength": 91200,
            "byteOffset": 91200,
            "byteStride": 12,
            "name": "bufferView_buffer_body_NORMAL_0",
            "target": 34962
        },
        {
            "buffer": 0,
            "byteLength": 60800,
            "byteOffset": 182400,
            "byteStride": 8,
            "name": "bufferView_buffer_body_TEXCOORD_0_0",
            "target": 34962
        },
        {
            "buffer": 0,
            "byteLength": 84004,
            "byteOffset": 243200,
            "name": "bufferView_buffer_body_0",
            "target": 34963
        },
        {
            "buffer": 0,
            "byteLength": 32448,
            "byteOffset": 327204,
            "byteStride": 12,
            "name": "bufferView_buffer_leftLeg_POSITION_0",
            "target": 34962
        },
        {
            "buffer": 0,
            "byteLength": 32448,
            "byteOffset": 359652,
            "byteStride": 12,
            "name": "bufferView_buffer_leftLeg_NORMAL_0",
            "target": 34962
        },
        {
            "buffer": 0,
            "byteLength": 21632,
            "byteOffset": 392100,
            "byteStride": 8,
            "name": "bufferView_buffer_leftLeg_TEXCOORD_0_0",
            "target": 34962
        },
        {
            "buffer": 0,
            "byteLength": 31444,
            "byteOffset": 413732,
            "name": "bufferView_buffer_leftLeg_0",
            "target": 34963
        },
        {
            "buffer": 0,
            "byteLength": 21108,
            "byteOffset": 445176,
            "byteStride": 12,
            "name": "bufferView_buffer_leftWing_POSITION_0",
            "target": 34962
        },
        {
            "buffer": 0,
            "byteLength": 21108,
            "byteOffset": 466284,
            "byteStride": 12,
            "name": "bufferView_buffer_leftWing_NORMAL_0",
            "target": 34962
        },
        {
            "buffer": 0,
            "byteLength": 14072,
            "byteOffset": 487392,
            "byteStride": 8,
            "name": "bufferView_buffer_leftWing_TEXCOORD_0_0",
            "target": 34962
        },
        {
            "buffer": 0,
            "byteLength": 16144,
            "byteOffset": 501464,
            "name": "bufferView_buffer_leftWing_0",
            "target": 34963
        },
        {
            "buffer": 0,
            "byteLength": 32124,
            "byteOffset": 517608,
            "byteStride": 12,
            "name": "bufferView_buffer_rightLeg_POSITION_0",
            "target": 34962
        },
        {
            "buffer": 0,
            "byteLength": 32124,
            "byteOffset": 549732,
            "byteStride": 12,
            "name": "bufferView_buffer_rightLeg_NORMAL_0",
            "target": 34962
        },
        {
            "buffer": 0,
            "byteLength": 21416,
            "byteOffset": 581856,
            "byteStride": 8,
            "name": "bufferView_buffer_rightLeg_TEXCOORD_0_0",
            "target": 34962
        },
        {
            "buffer": 0,
            "byteLength": 31192,
            "byteOffset": 603272,
            "name": "bufferView_buffer_rightLeg_0",
            "target": 34963
        },
        {
            "buffer": 0,
            "byteLength": 17388,
            "byteOffset": 634464,
            "byteStride": 12,
            "name": "bufferView_buffer_rightWing_POSITION_0",
            "target": 34962
        },
        {
            "buffer": 0,
            "byteLength": 17388,
            "byteOffset": 651852,
            "byteStride": 12,
            "name": "bufferView_buffer_rightWing_NORMAL_0",
            "target": 34962
        },
        {
            "buffer": 0,
            "byteLength": 11592,
            "byteOffset": 669240,
            "byteStride": 8,
            "name": "bufferView_buffer_rightWing_TEXCOORD_0_0",
            "target": 34962
        },
        {
            "buffer": 0,
            "byteLength": 15796,
            "byteOffset": 680832,
            "name": "bufferView_buffer_rightWing_0",
            "target": 34963
        }
    ],
    "buffers": [
        {
            "byteLength": 696628,
            "name": "buffer_chicken",
            "uri": "data:application/octet-stream;base64,"
        }
    ],
    "cameras": [
        {
            "name": "Camera",
            "perspective": {
                "aspectRatio": 1.703595982340029,
                "yfov": 0.5033799409866333,
                "zfar": 100.0,
                "znear": 0.10000000149011612
            },
            "type": "perspective"
        }
    ],
    "materials": [
        {
            "alphaMode": "OPAQUE",
            "doubleSided": false,
            "emissiveFactor": [
                0.0,
                0.0,
                0.0
            ],
            "name": "body",
            "pbrMetallicRoughness": {
                "baseColorFactor": [
                    0.64000004529953,
                    0.64000004529953,
                    0.64000004529953,
                    1.0
                ],
                "metallicFactor": 0.0,
                "roughnessFactor": 1.0
            }
        },
        {
            "alphaMode": "OPAQUE",
            "doubleSided": false,
            "emissiveFactor": [
                0.0,
                0.0,
                0.0
            ],
            "name": "leftLeg",
            "pbrMetallicRoughness": {
                "baseColorFactor": [
                    0.64000004529953,
                    0.64000004529953,
                    0.64000004529953,
                    1.0
                ],
                "metallicFactor": 0.0,
                "roughnessFactor": 1.0
            }
        },
        {
            "alphaMode": "OPAQUE",
            "doubleSided": false,
            "emissiveFactor": [
                0.0,
                0.0,
                0.0
            ],
            "name": "leftWing",
            "pbrMetallicRoughness": {
                "baseColorFactor": [
                    0.64000004529953,
                    0.64000004529953,
                    0.64000004529953,
                    1.0
                ],
                "metallicFactor": 0.0,
                "roughnessFactor": 1.0
            }
        },
        {
            "alphaMode": "OPAQUE",
            "doubleSided": false,
            "emissiveFactor": [
                0.0,
                0.0,
                0.0
            ],
            "name": "rightLeg",
            "pbrMetallicRoughness": {
                "baseColorFactor": [
                    0.64000004529953,
                    0.64000004529953,
                    0.64000004529953,
                    1.0
                ],
                "metallicFactor": 0.0,
                "roughnessFactor": 1.0
            }
        },
        {
            "alphaMode": "OPAQUE",
            "doubleSided": false,
            "emissiveFactor": [
                0.0,
                0.0,
                0.0
            ],
            "name": "rightWing",
            "pbrMetallicRoughness": {
                "baseColorFactor": [
                    0.64000004529953,
                    0.64000004529953,
                    0.64000004529953,
                    1.0
                ],
                "metallicFactor": 0.0,
                "roughnessFactor": 1.0
            }
        }
    ],
    "meshes": [
        {
            "name": "body",
            "primitives": [
                {
                    "attributes": {
                        "NORMAL": 5,
                        "POSITION": 3,
                        "TEXCOORD_0": 2
                    },
                    "indices": 4,
                    "material": 0,
                    "mode": 4
                }
            ]
        },
        {
            "name": "leftLeg",
            "primitives": [
                {
                    "attributes": {
                        "NORMAL": 15,
                        "POSITION": 8,
                        "TEXCOORD_0": 14
                    },
                    "indices": 11,
                    "material": 1,
                    "mode": 4
                }
            ]
        },
        {
            "name": "leftWing",
            "primitives": [
                {
                    "attributes": {
                        "NORMAL": 13,
                        "POSITION": 0,
                        "TEXCOORD_0": 6
                    },
                    "indices": 7,
                    "material": 2,
                    "mode": 4
                }
            ]
        },
        {
            "name": "rightLeg",
            "primitives": [
                {
                    "attributes": {
                        "NORMAL": 1,
                        "POSITION": 19,
                        "TEXCOORD_0": 12
                    },
                    "indices": 16,
                    "material": 3,
                    "mode": 4
                }
            ]
        },
        {
            "name": "rightWing",
            "primitives": [
                {
                    "attributes": {
                        "NORMAL": 18,
                        "POSITION": 9,
                        "TEXCOORD_0": 17
                    },
                    "indices": 10,
                    "material": 4,
                    "mode": 4
                }
            ]
        }
    ],
    "nodes": [
        {
            "mesh": 0,
            "name": "body",
            "rotation": [
                0.0,
                0.7660444974899292,
                0.0,
                0.6427875757217407
            ],
            "scale": [
                0.023050418123602867,
                0.023050406947731972,
                0.02305040881037712
            ],
            "translation": [
                -0.08260037750005722,
                -0.7743785381317139,
                9.874892725747486e-08
            ]
        },
        {
            "camera": 0,
            "name": "Camera",
            "rotation": [
                -0.20740030705928802,
                0.4089401066303253,
                0.09573213011026382,
                0.8835092186927795
            ],
            "scale": [
                1.0,
                1.0,
                1.0
            ],
            "translation": [
                12.752508163452148,
                5.324258804321289,
                -6.507640361785889
            ]
        },
        {
            "name": "Lamp",
            "rotation": [
                -0.34203386306762695,
                -0.5232755541801453,
                -0.2841663062572479,
                0.7269423007965088
            ],
            "scale": [
                1.0,
                1.0,
                0.9999999403953552
            ],
            "translation": [
                2.969769239425659,
                4.940369606018066,
                -23.233997344970703
            ]
        },
        {
            "mesh": 1,
            "name": "leftLeg",
            "rotation": [
                0.0,
                0.7660444974899292,
                0.0,
                0.6427875757217407
            ],
            "scale": [
                0.023050418123602867,
                0.023050406947731972,
                0.02305040881037712
            ],
            "translation": [
                -0.07440613210201263,
                -0.8385922312736511,
                -0.07009664177894592
            ]
        },
        {
            "mesh": 2,
            "name": "leftWing",
            "rotation": [
                0.0,
                0.7660444974899292,
                0.0,
                0.6427875757217407
            ],
            "scale": [
                0.023050418123602867,
                0.023050406947731972,
                0.02305040881037712
            ],
            "translation": [
                -0.08260037750005722,
                -0.7743785381317139,
                9.874892725747486e-08
            ]
        },
        {
            "mesh": 3,
            "name": "rightLeg",
            "rotation": [
                0.0,
                0.7660444974899292,
                0.0,
                0.6427875757217407
            ],
            "scale": [
                0.023050418123602867,
                0.023050406947731972,
                0.02305040881037712
            ],
            "translation": [
                -0.07440613210201263,
                -0.8385922312736511,
                -0.07009664177894592
            ]
        },
        {
            "mesh": 4,
            "name": "rightWing",
            "rotation": [
                0.0,
                0.7660444974899292,
                0.0,
                0.6427875757217407
            ],
            "scale": [
                0.023050418123602867,
                0.023050406947731972,
                0.02305040881037712
            ],
            "translation": [
                -0.08260037750005722,
                -0.7743785381317139,
                9.874892725747486e-08
            ]
        }
    ],
    "scene": 0,
    "scenes": [
        {
            "extras": {
                "active_camera": 0,
                "background_color": [
                    0.05087608844041824,
                    0.05087608844041824,
                    0.05087608844041824
                ],
                "frames_per_second": 24
            },
            "name": "Scene",
            "nodes": [
                5,
                6,
                3,
                4,
                0,
                2,
                1
            ]
        }
    ]
}
